<?xml version="1.0" standalone="no"?>
<!DOCTYPE svg PUBLIC "-//W3C//DTD SVG 20010904//EN"
 "http://www.w3.org/TR/2001/REC-SVG-20010904/DTD/svg10.dtd">
<svg version="1.0" xmlns="http://www.w3.org/2000/svg"
 width="700.000000pt" height="700.000000pt" viewBox="0 0 700.000000 700.000000"
 preserveAspectRatio="xMidYMid meet">
<metadata>
Created by potrace 1.14, written by Peter Selinger 2001-2017
</metadata>
<g transform="translate(0.000000,700.000000) scale(0.100000,-0.100000)"
fill="#000000" stroke="none">
<path d="M789 6996 c-2 -2 -26 -6 -54 -9 -294 -31 -528 -183 -635 -413 -37
-77 -76 -215 -89 -309 -6 -44 -9 -1094 -8 -2800 2 -2517 4 -2736 19 -2806 37
-165 92 -284 179 -388 33 -39 63 -71 67 -71 4 0 19 -10 33 -23 14 -12 36 -28
48 -35 64 -37 89 -50 121 -61 19 -8 52 -19 72 -27 20 -7 52 -16 70 -19 18 -3
51 -11 73 -18 51 -15 5474 -21 5575 -6 375 54 595 228 689 544 21 71 26 93 39
175 10 62 9 5483 -1 5545 -69 434 -300 659 -732 714 -65 9 -5457 15 -5466 7z"/>
</g>
</svg>
